<svg width="32" height="32" viewBox="0 0 32 32" fill="none" xmlns="http://www.w3.org/2000/svg">
  <!-- Background with gradient -->
  <rect width="32" height="32" rx="6" fill="url(#gradient)"/>
  
  <!-- Modern "A" letter with tech styling -->
  <g transform="translate(8, 6)">
    <!-- Main "A" shape -->
    <path d="M8 2 L2 18 L5 18 L6.5 14 L9.5 14 L11 18 L14 18 L8 2 Z" fill="white"/>
    <!-- Inner cutout for "A" -->
    <path d="M8 7 L7 10 L9 10 L8 7 Z" fill="url(#gradient)"/>
    
    <!-- Tech accent lines -->
    <rect x="0" y="16" width="3" height="1" fill="white" opacity="0.8"/>
    <rect x="13" y="16" width="3" height="1" fill="white" opacity="0.8"/>
    <circle cx="1" cy="4" r="0.5" fill="white" opacity="0.9"/>
    <circle cx="15" cy="4" r="0.5" fill="white" opacity="0.9"/>
  </g>
  
  <!-- Small "i" for AI -->
  <g transform="translate(20, 8)">
    <circle cx="2" cy="2" r="1" fill="white"/>
    <rect x="1.5" y="5" width="1" height="8" fill="white"/>
    <rect x="1" y="13" width="2" height="1" fill="white"/>
  </g>
  
  <!-- Gradient definitions -->
  <defs>
    <linearGradient id="gradient" x1="0%" y1="0%" x2="100%" y2="100%">
      <stop offset="0%" style="stop-color:#3B82F6;stop-opacity:1" />
      <stop offset="50%" style="stop-color:#6366F1;stop-opacity:1" />
      <stop offset="100%" style="stop-color:#06B6D4;stop-opacity:1" />
    </linearGradient>
  </defs>
</svg>